<svg width="295" height="295" viewBox="0 0 295 295" fill="none" xmlns="http://www.w3.org/2000/svg">
<path d="M110.439 185.85V126.85H126.251V134.992C127.667 132.554 129.909 130.39 132.977 128.502C136.123 126.614 139.349 125.67 142.653 125.67C151.621 125.67 157.757 129.25 161.061 136.408C162.87 133.262 165.584 130.705 169.203 128.738C172.821 126.693 176.283 125.67 179.587 125.67C194.848 125.67 202.479 134.874 202.479 153.282V185.85H186.667V155.17C186.667 153.046 186.549 151.276 186.313 149.86C186.077 148.444 185.605 146.989 184.897 145.494C184.267 144 183.205 142.898 181.711 142.19C180.216 141.404 178.289 141.01 175.929 141.01C172.153 141.01 169.281 142.308 167.315 144.904C165.348 147.422 164.365 150.49 164.365 154.108V185.85H148.553V155.17C148.553 153.046 148.435 151.276 148.199 149.86C147.963 148.444 147.491 146.989 146.783 145.494C146.153 144 145.091 142.898 143.597 142.19C142.102 141.404 140.175 141.01 137.815 141.01C133.881 141.01 130.971 142.387 129.083 145.14C127.195 147.894 126.251 151.198 126.251 155.052V185.85H110.439ZM221.671 178.062C215.535 172.084 212.467 164.846 212.467 156.35C212.467 147.854 215.535 140.617 221.671 134.638C227.886 128.66 235.32 125.67 243.973 125.67C252.626 125.67 260.021 128.66 266.157 134.638C272.372 140.617 275.479 147.854 275.479 156.35C275.479 164.846 272.372 172.084 266.157 178.062C260.021 184.041 252.626 187.03 243.973 187.03C235.32 187.03 227.886 184.041 221.671 178.062ZM232.999 145.494C230.01 148.484 228.515 152.102 228.515 156.35C228.515 160.598 230.01 164.217 232.999 167.206C236.067 170.196 239.725 171.69 243.973 171.69C248.221 171.69 251.84 170.196 254.829 167.206C257.897 164.217 259.431 160.598 259.431 156.35C259.431 152.102 257.897 148.484 254.829 145.494C251.84 142.505 248.221 141.01 243.973 141.01C239.725 141.01 236.067 142.505 232.999 145.494Z" fill="white"/>
<path d="M48.2058 110.951L44.7242 123.837C44.7242 123.837 58.4711 122.028 69.4266 124.988C80.3817 127.948 91.3498 136.435 91.3498 136.435L94.8798 123.37C94.8798 123.37 84.7761 113.95 73.0681 110.786C61.366 107.619 48.2058 110.951 48.2058 110.951Z" fill="white"/>
<path d="M108.749 124.017L114.058 122.777L110.116 118.957L110.445 117.739C110.445 117.739 113.539 111.472 105.185 112.929C104.752 113.032 104.492 113.186 104.355 113.366L78.3432 88.1301L31.9198 100.278L45.239 111.278L45.8438 109.039C45.8438 109.039 60.5152 105.329 73.5725 108.857C86.6274 112.384 97.8893 122.886 97.8893 122.886L96.8332 126.795L106.433 124.558C105.024 129.772 102.01 140.926 101.507 142.786L98.7165 142.032L96.966 148.511L101.37 146.948L104.796 150.626L106.548 144.145L103.531 143.33L108.749 124.017ZM108.724 116.067C108.682 116.223 108.565 116.655 108.394 117.287L106.315 115.269C107.366 114.919 109.142 114.519 108.724 116.067ZM105.965 122.992C104.883 122.7 104.238 121.585 104.531 120.503C104.823 119.421 105.942 118.781 107.024 119.073C108.108 119.366 108.747 120.482 108.455 121.564C108.162 122.646 107.05 123.285 105.965 122.992Z" fill="white"/>
<path fill-rule="evenodd" clip-rule="evenodd" d="M91.45 155.465C91.45 138.711 77.8187 125.08 61.0651 125.08C44.3115 125.08 30.6801 138.711 30.6801 155.465C30.6801 172.219 44.3115 185.85 61.0651 185.85H89.5508C90.5993 185.85 91.45 184.999 91.45 183.951V155.465ZM75.6498 154.857C75.6498 162.577 69.3921 168.834 61.6727 168.834C53.9534 168.834 47.6956 162.577 47.6956 154.857C47.6956 147.138 53.9534 140.88 61.6727 140.88C69.3921 140.88 75.6498 147.138 75.6498 154.857Z" fill="white"/>
</svg>
